# xmcd
#
# Track frame offsets: 
#        150
#        13483
#        25875
#        40057
#        57034
#        75531
#        97424
#        110869
#        120779
#        131519
#        147110
#        163047
#        184894
#        211158
#        229669
#        240736
#        262491
#        277610
#        295460
#        310096
#        324068
#
# Disc length: 4572 seconds
#
# Revision: 4
# Processed by: cddbd v1.5.2PL0 Copyright (c) Steve Scherf et al.
# Submitted via: ExactAudioCopy v1.0b4
#
DISCID=2a11da15
DTITLE=Various Artist - The Rough Guide To Chicago Blues
DYEAR=2003
DGENRE=Blues
TTITLE0=Roosevelt Sykes - Sweet Old Chicago
TTITLE1=Elmore James - Dust My Broom
TTITLE2=Nolan Struck - Strange Feeling
TTITLE3=Otis Spann - It Must Have Been The Devil
TTITLE4=Otis Spann with Robert Lockwood Junior - I Got Rambling On My 
TTITLE4=Mind #2
TTITLE5=Robert Nighthawk - Murderin' Blues
TTITLE6=Buddy Guy - This Is The End
TTITLE7=Johnny Jones and Billy Boy Arnold - Worried Life Blues
TTITLE8=Junior Wells - Come On In This House
TTITLE9=James Cotten, Paul Butterfield, Billy Boy Arnold, and Elvin Bish
TTITLE9=op - Three Harp Boogie
TTITLE10=Hound Dog Taylor - Ain't Got Nobody
TTITLE11=Valerie Wellington - Bad Avenue
TTITLE12=Muddy Waters - Walkin' Blues
TTITLE13=John Littlejohn - What In The World You Goin' To Do
TTITLE14=John Lee Hooker - Money (That's What I Want)
TTITLE15=Charlie Musselwhite - If I Should Have Bad Luck
TTITLE16=Koko Taylor - Never Trust A Man
TTITLE17=Eddy 'The Chief' Clearwater - Sugar Baby
TTITLE18=Little Walter - Rollin' And Tumblin' (Part 2)
TTITLE19=Otis Rush - I Can't Quit You Baby
TTITLE20=Magic Sam - Sweet Home Chicago
EXTD=YEAR: 2003
EXTT0=
EXTT1=
EXTT2=
EXTT3=
EXTT4=
EXTT5=
EXTT6=
EXTT7=
EXTT8=
EXTT9=
EXTT10=
EXTT11=
EXTT12=
EXTT13=
EXTT14=
EXTT15=
EXTT16=
EXTT17=
EXTT18=
EXTT19=
EXTT20=
PLAYORDER=
